# xmcd
#
# Track frame offsets: 
#        150
#        27004
#        46454
#        67379
#        90586
#        102471
#        123730
#        142215
#        163275
#        180076
#
# Disc length: 2773 seconds
#
# Revision: 1
# Processed by: cddbd v1.5PL3 Copyright (c) Steve Scherf et al.
# Submitted via: ExactAudioCopy v0.95a4
#
DISCID=920ad30a
DTITLE=杨小琳 - 杨小琳的真爱
DYEAR=2000
DGENRE=Blues
TTITLE0=曾经心痛
TTITLE1=夜来香
TTITLE2=千言万语
TTITLE3=情人的眼泪
TTITLE4=片片枫叶情
TTITLE5=GoodBye My Love
TTITLE6=等你回来
TTITLE7=心事
TTITLE8=祝你顺风
TTITLE9=最后一夜
EXTD=YEAR: 2000 ID3G: 0
EXTT0=
EXTT1=
EXTT2=
EXTT3=
EXTT4=
EXTT5=
EXTT6=
EXTT7=
EXTT8=
EXTT9=
PLAYORDER=
